<?xml version="1.0" standalone="no"?>
<!DOCTYPE svg PUBLIC "-//W3C//DTD SVG 20010904//EN"
 "http://www.w3.org/TR/2001/REC-SVG-20010904/DTD/svg10.dtd">
<svg version="1.0" xmlns="http://www.w3.org/2000/svg"
 width="1024.000000pt" height="1024.000000pt" viewBox="0 0 1024.000000 1024.000000"
 preserveAspectRatio="xMidYMid meet">

<g transform="translate(0.000000,1024.000000) scale(0.100000,-0.100000)"
fill="#000000" stroke="none">
<path d="M4693 9706 l-37 -33 22 -199 c30 -268 30 -278 43 -684 6 -195 12
-359 12 -365 1 -5 -19 -11 -44 -13 l-46 -3 -7 188 c-13 381 -19 501 -25 511
-5 9 -1383 18 -1966 14 l-221 -2 4 -1596 c3 -902 1 -1599 -4 -1604 -5 -5 -159
-12 -342 -16 -267 -6 -337 -10 -348 -21 -18 -18 -19 -132 -2 -156 12 -15 48
-17 358 -19 l345 -3 3 -90 c2 -49 0 -100 -3 -112 l-5 -23 -338 0 c-190 0 -343
-4 -352 -10 -19 -12 -21 -163 -2 -182 9 -9 96 -13 352 -16 l340 -4 -5 -872 -5
-871 1098 0 1097 0 6 110 c4 61 7 205 8 322 0 116 4 218 7 227 8 21 33 20 63
0 l23 -16 -5 -312 c-2 -202 -8 -323 -16 -346 -17 -52 -41 -326 -41 -480 0
-152 7 -171 67 -197 45 -18 91 -4 122 37 21 29 22 38 24 334 1 167 4 306 7
309 3 2 92 7 198 11 l192 7 0 -204 c0 -192 1 -206 21 -231 47 -59 118 -72 168
-30 52 44 55 55 55 256 1 102 3 188 6 191 3 2 83 7 178 11 l172 6 0 -350 c0
-386 3 -405 59 -434 41 -22 54 -20 92 11 56 48 61 71 66 363 4 209 2 289 -11
380 -14 104 -26 614 -15 624 2 2 24 13 49 24 l45 20 3 -323 2 -323 1108 5
1107 6 2 794 c2 437 5 799 8 804 4 5 123 9 285 9 309 0 303 -1 316 67 4 20 3
57 -2 82 l-9 46 -298 0 -297 0 2 395 3 395 277 3 277 2 6 33 c3 17 5 66 3 107
l-3 75 -275 5 c-247 4 -279 7 -309 24 -31 17 -63 20 -315 24 l-281 5 0 -1074
0 -1074 -23 -32 c-48 -68 -136 -66 -189 4 -21 27 -25 41 -20 74 7 54 47 96
101 107 l41 8 3 430 2 431 -67 7 c-70 7 -92 22 -93 63 0 28 24 41 94 49 l56 7
0 547 0 548 93 6 c50 3 337 8 637 10 l545 4 -4 93 c-2 55 -8 97 -15 102 -6 4
-27 5 -47 2 -19 -4 -208 -1 -420 5 -211 7 -476 11 -588 11 l-204 -2 9 273 c9
280 6 897 -5 1138 l-6 134 -35 7 c-50 11 -90 59 -90 110 0 73 45 129 104 129
69 0 145 -89 130 -153 -4 -17 -8 -370 -8 -783 l-1 -752 165 4 c91 2 269 9 395
15 127 6 430 14 675 17 l445 7 3 80 c2 44 0 91 -3 104 l-6 24 -527 -4 -527 -4
0 1023 1 1024 -1107 -4 c-609 -1 -1110 -6 -1113 -9 -4 -3 -8 -160 -10 -349 -3
-211 -8 -346 -14 -352 -6 -6 -26 -8 -47 -4 l-36 7 2 625 c1 695 4 660 -66 690
-42 17 -72 7 -109 -36 l-27 -33 1 -256 c1 -141 1 -264 0 -273 0 -16 -11 -18
-77 -18 -43 0 -122 3 -175 7 l-98 6 0 177 c0 170 -1 177 -22 197 -13 12 -40
26 -62 32 -45 12 -90 -2 -125 -40 -20 -21 -21 -33 -21 -196 l0 -173 -202 0
-203 0 0 274 c0 260 -1 275 -20 296 -53 58 -110 64 -162 16z m-858 -843 c5
-44 3 -68 -5 -78 -11 -13 -90 -15 -531 -15 l-519 0 -2 -572 -3 -573 -77 -3
-78 -3 0 653 0 653 604 1 604 1 7 -64z m3870 57 l490 0 0 -647 0 -648 -75 4
c-41 1 -76 4 -77 5 -1 1 -5 256 -9 567 l-7 566 -256 5 c-141 3 -366 2 -501 -2
-135 -4 -248 -4 -253 -1 -4 4 -4 42 0 85 l6 79 96 -7 c53 -3 317 -6 586 -6z
m-2393 -721 c-3 -333 0 -506 8 -561 6 -45 8 -84 3 -88 -4 -5 -61 -6 -125 -3
l-117 6 -3 456 c-3 382 -1 459 11 476 15 21 212 195 221 195 3 0 3 -217 2
-481z m313 354 c182 -175 331 -310 442 -399 65 -52 198 -164 298 -248 240
-205 428 -350 495 -383 30 -15 57 -28 59 -30 9 -7 -88 -98 -204 -192 -66 -53
-157 -127 -202 -164 -45 -37 -86 -67 -91 -67 -5 0 -19 12 -33 26 -58 63 -306
260 -410 327 -80 51 -284 120 -420 142 l-35 5 -3 503 c-2 462 1 557 17 557 3
0 42 -35 87 -77z m-2392 -54 c30 -23 52 -86 44 -121 -11 -41 -46 -77 -88 -89
l-39 -12 -2 -266 c-1 -146 0 -437 2 -647 l3 -381 -43 -7 c-24 -4 -47 -3 -52 2
-9 9 -12 1208 -2 1223 3 5 0 54 -6 108 -13 117 -4 144 57 186 45 30 91 32 126
4z m3545 -35 c50 -52 38 -124 -29 -175 -20 -15 -17 -16 79 -23 56 -4 172 -6
259 -6 87 1 170 1 185 0 20 0 45 -18 93 -65 36 -36 65 -70 65 -75 0 -13 -32
-28 -47 -23 -13 5 -18 -268 -18 -1024 l0 -253 44 -36 c51 -43 71 -86 71 -152
0 -87 -103 -211 -176 -212 -50 0 -127 27 -167 61 -51 42 -79 99 -79 165 -1 95
75 186 168 201 21 3 42 11 46 17 4 6 8 297 8 647 0 497 -3 639 -12 647 -8 5
-123 11 -278 14 -285 5 -305 8 -316 56 -3 15 -19 51 -35 79 -33 59 -36 100
-13 144 17 34 68 61 99 53 11 -3 35 -21 53 -40z m247 -19 c32 -32 31 -50 -4
-86 -36 -35 -54 -36 -86 -4 -32 31 -33 78 -3 99 32 23 65 20 93 -9z m-3481 2
c43 -31 -10 -98 -67 -83 -29 7 -36 40 -17 77 12 22 57 26 84 6z m228 -4 c38
-34 9 -103 -43 -103 -26 0 -69 39 -69 62 0 51 72 77 112 41z m193 -8 c31 -30
31 -48 3 -75 -30 -28 -74 -26 -94 4 -21 33 -15 68 16 83 36 18 48 16 75 -12z
m3318 14 c12 -6 29 -20 36 -32 12 -19 10 -24 -18 -49 -43 -38 -85 -38 -106 1
-33 64 19 111 88 80z m-3058 -24 c14 -13 25 -35 25 -49 0 -30 -52 -76 -86 -76
-48 0 -92 78 -66 116 26 39 93 44 127 9z m2147 -12 c36 -33 17 -71 -39 -75
-56 -4 -76 36 -41 80 15 17 58 15 80 -5z m-1465 -528 l2 -415 -140 0 c-76 0
-181 -6 -232 -14 -50 -8 -128 -18 -172 -21 -98 -9 -129 -24 -225 -112 -67 -61
-174 -147 -207 -167 -10 -6 -13 30 -13 166 l0 173 198 157 c108 86 251 208
318 270 118 111 255 232 384 341 42 36 69 52 75 46 6 -6 11 -164 12 -424z
m-797 361 c6 -8 10 -25 8 -38 -3 -21 -10 -24 -68 -29 -36 -4 -168 -7 -295 -8
l-230 -2 -50 -47 -51 -47 7 -280 c4 -154 7 -379 8 -500 l1 -220 -47 3 -48 4 0
474 0 475 -24 18 c-17 13 -21 24 -17 38 8 24 159 155 190 165 12 3 152 6 312
7 243 1 294 -1 304 -13z m2889 -292 c27 -35 27 -78 -1 -104 -25 -23 -32 -24
-61 -8 -50 26 -61 76 -25 115 28 30 62 29 87 -3z m-3135 -15 c33 -39 33 -54 0
-84 -34 -31 -45 -31 -83 1 -38 32 -40 65 -5 93 37 29 58 26 88 -10z m3725 -65
c25 -32 26 -52 5 -82 -29 -42 -91 -23 -108 35 -5 17 -1 29 18 48 32 32 59 32
85 -1z m-3963 -13 c-5 -8 -11 -7 -20 2 -10 9 -11 14 -2 19 14 9 30 -7 22 -21z
m3965 -230 c34 -35 38 -72 9 -101 -43 -43 -120 -11 -120 48 0 31 15 54 45 70
29 16 33 15 66 -17z m-3931 -71 c11 -11 20 -27 20 -35 0 -20 -44 -65 -63 -65
-24 0 -67 40 -67 62 0 53 71 77 110 38z m3935 -180 c37 -41 7 -170 -40 -170
-12 0 -33 8 -46 19 -19 15 -25 30 -27 74 -3 49 0 57 24 76 34 26 66 27 89 1z
m-3063 -267 l-4 -188 -36 -39 c-20 -21 -64 -59 -98 -85 -33 -25 -111 -86 -171
-136 -165 -134 -275 -217 -293 -222 -14 -4 -15 22 -13 242 l3 246 43 35 c23
18 92 67 152 107 75 50 124 91 154 130 40 50 51 57 105 71 57 15 92 21 141 25
19 1 20 -4 17 -186z m957 93 c42 -22 89 -81 97 -121 19 -103 -54 -195 -156
-195 -56 0 -99 20 -137 63 -93 106 -21 267 120 267 26 0 61 -7 76 -14z m-2618
-167 c31 -31 21 -62 -23 -73 -43 -11 -68 3 -68 40 0 23 33 54 57 54 7 0 22 -9
34 -21z m789 -269 l0 -50 -537 2 -538 3 -3 48 -3 47 540 0 541 0 0 -50z m1024
11 c3 -5 16 -11 28 -14 13 -2 148 -37 302 -76 153 -39 378 -91 500 -116 121
-24 264 -55 316 -69 52 -14 172 -41 265 -60 373 -77 538 -120 643 -169 l70
-32 -112 -80 c-61 -44 -145 -112 -187 -152 -91 -88 -309 -263 -326 -263 -7 0
-13 4 -13 10 0 5 -8 14 -19 19 -32 18 -399 108 -591 146 -102 20 -247 52 -322
70 -75 19 -170 38 -210 44 -40 6 -113 22 -163 36 -49 13 -218 56 -375 95 -157
38 -297 75 -311 81 -15 6 -40 24 -55 40 l-29 30 71 67 c169 161 320 291 400
345 84 56 107 66 118 48z m2033 -43 c39 -19 44 -26 41 -51 -3 -26 -9 -32 -48
-43 -65 -20 -87 -17 -105 10 -16 24 -13 68 8 94 14 18 55 15 104 -10z m-3081
-224 c-3 -9 -6 -30 -6 -48 l0 -33 -517 1 -518 1 -3 42 -3 43 468 3 c257 1 494
3 527 5 49 2 57 0 52 -14z m3732 -471 l2 -311 -44 -20 c-24 -12 -57 -37 -74
-58 l-30 -36 -21 21 c-15 15 -21 34 -21 65 0 39 6 53 50 105 l50 60 1 208 c1
249 3 271 33 275 54 9 51 25 54 -309z m-3816 212 c51 -34 93 -121 84 -176 -12
-73 -41 -116 -95 -141 -29 -13 -52 -31 -56 -43 -3 -11 -10 -195 -15 -410 -5
-214 -14 -457 -20 -540 -5 -82 -10 -192 -10 -243 l0 -93 76 -74 75 -75 177 0
c193 0 252 -9 252 -40 0 -10 -10 -22 -22 -26 -11 -3 -126 -3 -253 1 l-232 7
-16 28 c-9 15 -46 55 -82 89 l-66 61 17 312 c9 172 19 471 21 664 l5 352 -50
50 c-31 31 -55 66 -61 88 -32 116 81 255 194 239 22 -3 56 -17 77 -30z m-419
-82 c4 -54 7 -212 7 -350 l0 -253 33 -13 c39 -17 104 -87 113 -122 19 -74 -23
-167 -95 -208 -101 -60 -238 14 -257 138 -8 54 15 108 69 163 l42 43 2 327 c1
180 2 337 2 350 1 19 6 22 39 22 l39 0 6 -97z m4908 48 c22 -22 29 -39 29 -67
0 -82 -83 -113 -142 -54 -26 27 -30 36 -25 67 13 80 84 108 138 54z m-5134
-33 c44 -41 17 -118 -42 -118 -33 0 -75 42 -75 74 0 28 42 66 73 66 11 0 31
-10 44 -22z m4012 -338 c-4 -146 -8 -286 -8 -312 l-1 -46 -80 -41 c-43 -22
-108 -62 -143 -89 -35 -26 -93 -65 -129 -85 -65 -36 -68 -37 -177 -37 -61 0
-111 4 -111 8 0 4 6 14 13 20 8 9 14 65 17 177 l5 165 40 32 c22 18 75 65 117
104 42 40 128 111 190 160 62 48 136 108 163 132 46 41 106 84 111 79 1 -1 -2
-121 -7 -267z m-4004 85 c32 -31 32 -68 0 -89 -32 -21 -47 -20 -79 5 -34 27
-33 51 5 83 38 32 44 32 74 1z m1135 -25 c37 -20 54 -126 23 -151 -26 -22
-116 -18 -150 7 -46 34 -40 118 10 142 28 14 93 15 117 2z m1440 -268 c70 -53
96 -143 60 -216 -30 -64 -75 -90 -146 -84 -117 10 -182 111 -139 215 21 50 42
72 90 95 47 22 97 18 135 -10z m-876 -321 c182 -152 233 -187 305 -207 31 -8
87 -26 124 -40 47 -17 101 -26 170 -31 l102 -6 0 -511 c0 -281 -2 -531 -3
-556 l-2 -46 -142 139 c-79 76 -174 161 -213 188 -38 28 -115 90 -170 138 -55
48 -147 125 -205 171 -58 46 -130 107 -161 135 -30 28 -82 68 -115 89 -119 78
-139 92 -208 157 -58 53 -138 118 -201 161 -6 5 6 21 30 40 36 30 310 287 395
370 l35 35 56 -52 c31 -28 123 -107 203 -174z m2274 -270 c-37 -25 -267 -220
-341 -288 -38 -34 -101 -83 -140 -109 -90 -59 -230 -169 -322 -253 -38 -36
-144 -124 -235 -196 -91 -72 -201 -170 -245 -217 l-80 -86 0 500 0 500 45 39
c25 22 72 53 105 70 l60 30 7 -53 c3 -29 4 -134 1 -233 -9 -305 16 -525 60
-525 14 0 57 48 68 77 5 13 13 117 19 231 17 361 30 471 58 494 16 14 130 22
451 34 l193 7 28 31 c16 17 48 53 72 80 23 27 81 80 128 118 l85 68 3 -151 c2
-148 2 -152 -20 -168z m685 57 c9 -34 -19 -70 -51 -66 -24 3 -27 8 -30 46 l-3
42 39 0 c33 0 41 -4 45 -22z m-4431 -368 l-3 -350 37 0 c52 0 94 -44 94 -100
0 -34 -6 -48 -34 -76 -57 -57 -127 -41 -167 37 -15 30 -19 59 -19 136 0 54 3
116 7 138 l7 40 7 -30 c4 -16 5 11 2 60 -12 233 -15 360 -8 419 7 67 11 72 60
75 20 1 20 -4 17 -349z m-431 298 l55 -11 1 -291 c0 -160 -1 -283 -4 -273 -6
23 -83 25 -83 2 0 -8 -9 -15 -19 -15 -11 0 -21 -8 -24 -17 -7 -32 -16 148 -20
390 l-4 239 21 -7 c11 -3 46 -11 77 -17z m5481 -300 c1 -145 1 -428 0 -630
l-4 -368 -584 0 -584 0 0 78 0 77 505 0 505 0 2 405 c2 223 3 468 4 545 0 77
1 143 2 148 1 4 35 7 76 7 l74 0 4 -262z m-4534 186 c26 -18 28 -36 6 -69 -20
-31 -56 -33 -84 -5 -26 26 -25 54 3 73 28 20 47 21 75 1z m184 -161 c10 -9 18
-25 18 -36 0 -53 -75 -77 -104 -35 -22 31 -20 54 6 72 29 21 57 20 80 -1z
m3201 -24 c16 -22 17 -30 7 -48 -6 -12 -23 -26 -38 -32 -51 -19 -106 55 -71
97 20 24 78 14 102 -17z m346 -62 c1 -38 1 -39 -31 -32 -52 11 -63 27 -47 64
8 17 21 31 30 31 9 0 20 8 25 18 6 14 8 12 14 -13 4 -16 8 -47 9 -68z m11 -92
c-18 -19 -20 -25 -8 -25 9 0 22 10 31 23 8 12 18 19 21 16 4 -4 -14 -29 -39
-57 -25 -27 -59 -67 -76 -89 -31 -38 -31 -38 -122 -44 -51 -4 -156 -7 -234 -8
-138 -1 -142 0 -140 20 2 32 32 38 220 49 94 6 176 15 183 21 9 7 19 7 33 0
25 -14 61 -14 61 -1 0 5 11 20 25 34 29 29 32 41 8 32 -13 -5 -12 -1 6 18 14
14 20 30 16 37 -5 8 -4 10 3 5 7 -4 12 -2 12 5 0 10 3 10 12 1 9 -9 6 -17 -12
-37z m-626 -178 c13 -13 29 -47 36 -75 15 -63 4 -99 -42 -137 -36 -30 -67 -32
-100 -5 -71 55 -58 186 23 227 35 19 57 16 83 -10z m-2559 -51 c30 -30 39 -65
31 -112 -6 -28 -14 -38 -42 -50 -79 -33 -137 35 -103 123 25 66 71 82 114 39z
m2814 -82 c17 -37 13 -72 -9 -94 -27 -27 -36 -25 -71 10 -41 40 -37 79 10 102
39 20 54 16 70 -18z m286 2 c15 -11 19 -27 20 -72 l0 -59 -44 -3 c-57 -4 -94
5 -84 21 4 6 7 31 8 55 1 64 52 93 100 58z m-3339 -13 c18 -25 17 -59 -3 -95
l-18 -30 -74 6 c-55 4 -86 13 -120 33 -25 14 -59 30 -76 34 l-30 8 35 -1 c126
-3 151 1 178 32 31 35 86 42 108 13z m-161 -435 c-9 -92 -5 -88 -87 -88 l-73
0 3 69 c4 79 1 76 110 80 l53 1 -6 -62z"/>
<path d="M7202 6718 c-28 -30 -44 -76 -36 -102 9 -32 53 -74 84 -81 32 -7 72
7 100 35 36 36 19 134 -29 160 -35 18 -96 12 -119 -12z"/>
<path d="M5040 6362 c0 -21 -3 -60 -6 -86 l-7 -46 67 0 c94 0 550 -78 705
-121 11 -3 17 15 26 75 11 77 11 78 -13 87 -13 5 -28 9 -34 9 -6 0 -83 15
-172 34 -150 32 -355 65 -503 81 l-63 7 0 -40z"/>
<path d="M3401 6164 c-43 -36 -43 -85 0 -125 17 -16 42 -29 56 -29 36 0 83 51
83 90 0 39 -47 90 -83 90 -14 0 -39 -12 -56 -26z"/>
<path d="M3056 5439 c-55 -43 -22 -109 55 -109 66 0 91 59 44 105 -30 30 -64
32 -99 4z"/>
<path d="M3081 4634 c0 -11 3 -14 6 -6 3 7 2 16 -1 19 -3 4 -6 -2 -5 -13z"/>
</g>
</svg>
